<?xml version="1.0" encoding="utf-8"?>
<!-- Generator: Adobe Illustrator 27.6.1, SVG Export Plug-In . SVG Version: 6.00 Build 0)  -->
<svg version="1.1" id="Layer_1" xmlns="http://www.w3.org/2000/svg" xmlns:xlink="http://www.w3.org/1999/xlink" x="0px" y="0px"
	 viewBox="0 0 296.72 319.71" style="enable-background:new 0 0 296.72 319.71;" xml:space="preserve">
<style type="text/css">
	.st0{fill:url(#SVGID_1_);}
	.st1{fill:url(#SVGID_00000031898467481111285650000002068524425152107907_);}
</style>
<linearGradient id="SVGID_1_" gradientUnits="userSpaceOnUse" x1="10.8533" y1="-33.0087" x2="198.0654" y2="201.0065">
	<stop  offset="5.618000e-03" style="stop-color:#FBCA2A"/>
	<stop  offset="0.2528" style="stop-color:#FDF9CE"/>
	<stop  offset="0.2968" style="stop-color:#F6EBBC"/>
	<stop  offset="0.3841" style="stop-color:#E7D192"/>
	<stop  offset="0.5054" style="stop-color:#D1AC58"/>
	<stop  offset="0.5955" style="stop-color:#C2922E"/>
	<stop  offset="0.8246" style="stop-color:#E5C977"/>
	<stop  offset="0.8708" style="stop-color:#EED688"/>
	<stop  offset="1" style="stop-color:#FDF9CE"/>
</linearGradient>
<path class="st0" d="M292.5,83.03c-5.46-7.14-13.75-7.82-16-8c-1.8-0.15-12.49-1.02-19,7c-3.01,3.7-6.2,10.63-4,16
	c1.09,2.65,3.55,5.09,4,10c0,0,0.13,1.44,0,3c-0.88,10.47-51,112-51,112c-0.8,1.27-3.08,4.88-4,4.5c-0.84-0.34-0.12-3.86,0-4.52
	c1.39-7.49,15.02-155.43,19.5-158.09c0.02-0.01,0.63-0.37,1.5-0.89c9.7-5.77,10.46-6.32,11-7c2.91-3.67,3.68-7.38,4-9
	c0.39-1.97,1.35-6.88-1-12c-1.59-3.47-4.01-5.49-7-8c-2.04-1.71-3.56-2.99-6-4c-5-2.08-9.59-1.27-11-1c-5.89,1.12-9.52,4.56-11,6
	c-1.97,1.92-6.8,6.62-7,14c-0.23,8.65,6.07,14.21,7,15l1,2l-32,140c-0.05,0.34-0.24,1.24-1,2c-1.19,1.18-2.78,1.03-3,1
	c-1.09-0.19-1.67-0.62-2-1c-0.62-0.72-1-2-1-2c-1.33-54.33-2.67-108.67-4-163c1.45-1.11,3.27-2.73,5-5c1.38-1.82,2.34-3.56,3-5
	c0.46-1.46,0.94-3.52,1-6c0.07-2.97-0.49-5.39-1-7c-0.61-1.39-1.55-3.16-3-5c-1.4-1.78-2.83-3.09-4-4c-1.23-0.67-2.56-1.35-4-2
	c-1.76-0.8-3.43-1.45-5-2c-1.24-0.44-2.94-0.89-5-1c-3.04-0.17-5.49,0.47-7,1c-1.47,0.44-3.18,1.08-5,2c-2.53,1.28-4.52,2.74-6,4
	c-1,1.67-2,3.33-3,5c-0.46,1.55-0.9,3.59-1,6c-0.14,3.36,0.44,6.12,1,8c0.44,1.78,1.47,4.9,4,8c2.14,2.62,4.48,4.16,6,5
	c-2.33,52.67-4.67,105.33-7,158c-0.12,1.95-1.69,3.19-3,3c-0.9-0.13-1.68-0.94-2-2c-9.33-46.33-21.17-85.17-30.5-131.5
	c1.67-2,12-14,10.5-25.5c-4.5-16.5-19.5-18.5-28-18c-5.38,0.32-20.5,6.5-20.5,23.5c1,13,22.5,21.5,22.5,21.5l19,161
	c-0.11,0.29-0.88,2.25-3,3c-1.69,0.6-3.6,0.21-5-1c-16.67-39.33-33.33-78.67-50-118c0.67-0.91,7.92-18.43,0.5-27.5
	c-9-11-18.64-10.19-21-10c-5.59,0.46-19,1.2-19,22c0,6,10.35,18.19,18,20c1.85,0.44,3.83,5.83,4.5,6.5l17,55
	c7.33,23.33,14.67,46.67,22,70c3.5,10.54,7.15,18.98,10,25c4.93,10.43,7.89,14.51,9,16c1.32,1.77,6.15,8.06,14,14
	c0,0,23.29,17.63,55.5,15.5c4.79-0.32,10.54-0.98,10.54-0.98c0,0,0,0,0,0c8.74-0.48,20.02-2.29,31.96-7.52
	c1.99-0.87,19.8-8.86,26.5-20.5c0.06-0.11,0.22-0.37,0.39-0.7c0.84-1.61,1.87-4.56,6.11-18.8c2.9-9.76,5.66-19.01,7-24
	c1.51-5.61,33.22-115.33,39.12-131.11c0.46-1.22,4.68-1.11,8.6-1.89c1.64-0.32,11.58-2.5,15.28-12
	C299.32,92.25,293.03,83.72,292.5,83.03z M147,292.03c-25.13,0-45.5-9.4-45.5-21s20.37-21,45.5-21s45.5,9.4,45.5,21
	S172.13,292.03,147,292.03z"/>
<linearGradient id="SVGID_00000080895526629814823620000010428856380587479683_" gradientUnits="userSpaceOnUse" x1="10.8533" y1="-33.0087" x2="198.0654" y2="201.0065">
	<stop  offset="5.618000e-03" style="stop-color:#FBCA2A"/>
	<stop  offset="0.2528" style="stop-color:#FDF9CE"/>
	<stop  offset="0.2968" style="stop-color:#F6EBBC"/>
	<stop  offset="0.3841" style="stop-color:#E7D192"/>
	<stop  offset="0.5054" style="stop-color:#D1AC58"/>
	<stop  offset="0.5955" style="stop-color:#C2922E"/>
	<stop  offset="0.8246" style="stop-color:#E5C977"/>
	<stop  offset="0.8708" style="stop-color:#EED688"/>
	<stop  offset="1" style="stop-color:#FDF9CE"/>
</linearGradient>
<path style="fill:url(#SVGID_00000080895526629814823620000010428856380587479683_);" d="M292.5,83.03c-5.46-7.14-13.75-7.82-16-8
	c-1.8-0.15-12.49-1.02-19,7c-3.01,3.7-6.2,10.63-4,16c1.09,2.65,3.55,5.09,4,10c0,0,0.13,1.44,0,3c-0.88,10.47-51,112-51,112
	c-0.8,1.27-3.08,4.88-4,4.5c-0.84-0.34-0.12-3.86,0-4.52c1.39-7.49,15.02-155.43,19.5-158.09c0.02-0.01,0.63-0.37,1.5-0.89
	c9.7-5.77,10.46-6.32,11-7c2.91-3.67,3.68-7.38,4-9c0.39-1.97,1.35-6.88-1-12c-1.59-3.47-4.01-5.49-7-8c-2.04-1.71-3.56-2.99-6-4
	c-5-2.08-9.59-1.27-11-1c-5.89,1.12-9.52,4.56-11,6c-1.97,1.92-6.8,6.62-7,14c-0.23,8.65,6.07,14.21,7,15l1,2l-32,140
	c-0.05,0.34-0.24,1.24-1,2c-1.19,1.18-2.78,1.03-3,1c-1.09-0.19-1.67-0.62-2-1c-0.62-0.72-1-2-1-2c-1.33-54.33-2.67-108.67-4-163
	c1.45-1.11,3.27-2.73,5-5c1.38-1.82,2.34-3.56,3-5c0.46-1.46,0.94-3.52,1-6c0.07-2.97-0.49-5.39-1-7c-0.61-1.39-1.55-3.16-3-5
	c-1.4-1.78-2.83-3.09-4-4c-1.23-0.67-2.56-1.35-4-2c-1.76-0.8-3.43-1.45-5-2c-1.24-0.44-2.94-0.89-5-1c-3.04-0.17-5.49,0.47-7,1
	c-1.47,0.44-3.18,1.08-5,2c-2.53,1.28-4.52,2.74-6,4c-1,1.67-2,3.33-3,5c-0.46,1.55-0.9,3.59-1,6c-0.14,3.36,0.44,6.12,1,8
	c0.44,1.78,1.47,4.9,4,8c2.14,2.62,4.48,4.16,6,5c-2.33,52.67-4.67,105.33-7,158c-0.12,1.95-1.69,3.19-3,3c-0.9-0.13-1.68-0.94-2-2
	c-9.33-46.33-21.17-85.17-30.5-131.5c1.67-2,12-14,10.5-25.5c-4.5-16.5-19.5-18.5-28-18c-5.38,0.32-20.5,6.5-20.5,23.5
	c1,13,22.5,21.5,22.5,21.5l19,161c-0.11,0.29-0.88,2.25-3,3c-1.69,0.6-3.6,0.21-5-1c-16.67-39.33-33.33-78.67-50-118
	c0.67-0.91,7.92-18.43,0.5-27.5c-9-11-18.64-10.19-21-10c-5.59,0.46-19,1.2-19,22c0,6,10.35,18.19,18,20
	c1.85,0.44,3.83,5.83,4.5,6.5l17,55c7.33,23.33,14.67,46.67,22,70c3.5,10.54,7.15,18.98,10,25c4.93,10.43,7.89,14.51,9,16
	c1.32,1.77,6.15,8.06,14,14c0,0,23.29,17.63,55.5,15.5c4.79-0.32,10.54-0.98,10.54-0.98c0,0,0,0,0,0
	c8.74-0.48,20.02-2.29,31.96-7.52c1.99-0.87,19.8-8.86,26.5-20.5c0.06-0.11,0.22-0.37,0.39-0.7c0.84-1.61,1.87-4.56,6.11-18.8
	c2.9-9.76,5.66-19.01,7-24c1.51-5.61,33.22-115.33,39.12-131.11c0.46-1.22,4.68-1.11,8.6-1.89c1.64-0.32,11.58-2.5,15.28-12
	C299.32,92.25,293.03,83.72,292.5,83.03z M147,292.03c-25.13,0-45.5-9.4-45.5-21s20.37-21,45.5-21s45.5,9.4,45.5,21
	S172.13,292.03,147,292.03z"/>
</svg>
